<?xml version="1.0" standalone="no"?>
<!DOCTYPE svg PUBLIC "-//W3C//DTD SVG 20010904//EN"
 "http://www.w3.org/TR/2001/REC-SVG-20010904/DTD/svg10.dtd">
<svg version="1.0" xmlns="http://www.w3.org/2000/svg"
 width="2000.000000pt" height="2000.000000pt" viewBox="0 0 2000.000000 2000.000000"
 preserveAspectRatio="xMidYMid meet">
<metadata>
Created by potrace 1.14, written by Peter Selinger 2001-2017
</metadata>
<g transform="translate(0.000000,2000.000000) scale(0.100000,-0.100000)"
fill="#000000" stroke="none">
<path d="M9675 19990 c-16 -4 -84 -8 -149 -9 -112 -1 -178 -5 -466 -31 -169
-16 -385 -42 -570 -71 -353 -55 -717 -130 -1015 -209 -150 -40 -227 -61 -268
-74 -23 -7 -62 -19 -87 -26 -25 -7 -79 -24 -120 -38 -41 -13 -88 -28 -105 -32
-27 -8 -166 -56 -385 -135 -41 -15 -94 -35 -117 -46 -24 -10 -46 -19 -51 -19
-5 0 -27 -9 -50 -20 -22 -11 -47 -20 -55 -20 -7 0 -17 -4 -22 -8 -6 -5 -30
-17 -55 -26 -25 -10 -60 -24 -77 -32 -18 -8 -48 -20 -65 -28 -31 -13 -54 -23
-175 -77 -255 -113 -788 -395 -1018 -539 -309 -192 -412 -260 -580 -380 -38
-27 -95 -67 -125 -88 -30 -21 -104 -77 -164 -123 -59 -46 -120 -93 -135 -104
-334 -251 -899 -779 -1237 -1155 -551 -613 -996 -1245 -1391 -1975 -44 -80
-256 -509 -285 -575 -9 -19 -25 -55 -36 -80 -37 -84 -112 -261 -112 -266 0 -2
-10 -26 -21 -52 -42 -93 -49 -110 -49 -117 0 -4 -6 -21 -14 -38 -7 -18 -23
-58 -35 -89 -11 -32 -30 -82 -40 -110 -35 -94 -92 -262 -108 -313 -8 -27 -22
-70 -30 -95 -8 -25 -19 -58 -23 -75 -5 -16 -20 -68 -34 -115 -40 -137 -124
-458 -147 -565 -6 -27 -15 -66 -19 -85 -4 -19 -19 -93 -34 -165 -14 -71 -30
-150 -35 -175 -5 -25 -15 -76 -21 -115 -6 -38 -15 -95 -20 -125 -20 -119 -30
-196 -60 -437 -8 -71 -17 -164 -36 -368 -43 -486 -35 -1208 21 -1760 17 -171
52 -435 75 -575 5 -30 14 -86 20 -125 6 -38 16 -90 21 -115 5 -25 21 -103 35
-175 15 -71 30 -146 34 -165 4 -19 13 -57 19 -85 16 -76 108 -434 131 -510 58
-195 80 -266 131 -420 67 -200 131 -378 160 -442 10 -24 19 -46 19 -51 0 -5 9
-27 20 -50 11 -22 20 -46 20 -52 0 -5 4 -18 10 -28 5 -9 31 -66 56 -127 25
-60 57 -135 71 -165 13 -30 36 -82 51 -115 32 -72 257 -519 297 -590 90 -160
192 -338 225 -390 337 -541 553 -841 899 -1255 267 -317 692 -758 956 -990 22
-19 76 -67 120 -106 84 -74 244 -208 308 -259 21 -17 55 -43 76 -60 111 -87
257 -198 308 -234 32 -23 103 -73 158 -112 124 -88 320 -217 486 -320 289
-179 770 -436 1049 -562 19 -8 70 -32 113 -51 42 -20 79 -36 82 -36 2 0 30
-12 62 -26 99 -45 132 -58 498 -199 112 -43 451 -155 590 -195 288 -83 574
-155 770 -196 44 -9 100 -21 125 -26 25 -5 69 -13 98 -19 28 -5 78 -14 110
-19 96 -18 283 -47 382 -60 36 -5 103 -14 150 -20 889 -116 1917 -94 2838 60
34 5 88 14 120 19 64 10 295 56 357 71 22 5 69 16 105 24 214 49 527 130 675
177 164 51 507 167 615 209 74 28 147 55 162 60 14 4 55 20 90 35 34 15 77 33
93 40 17 7 64 27 105 45 69 30 95 41 200 88 139 61 566 277 712 360 29 17 69
39 88 50 592 332 1195 769 1750 1266 366 328 907 907 1155 1236 11 15 79 105
151 201 162 216 235 319 370 528 95 148 304 488 304 497 0 1 16 30 36 64 76
131 307 583 374 735 87 195 115 261 150 350 17 44 37 94 45 110 7 17 26 66 43
110 16 44 42 111 57 150 30 79 142 413 175 525 13 41 29 94 36 117 39 122 139
520 180 718 9 44 21 100 26 125 5 25 13 69 19 98 5 28 14 78 19 110 15 79 29
164 41 247 26 175 30 205 39 285 119 990 92 2015 -80 2953 -5 31 -14 81 -19
110 -13 69 -26 132 -51 247 -11 52 -25 115 -30 140 -16 78 -110 440 -130 505
-5 17 -24 77 -41 135 -85 288 -258 770 -350 977 -10 24 -19 45 -19 48 0 2 -11
28 -24 57 -13 29 -33 73 -44 98 -11 25 -30 68 -42 95 -115 259 -396 789 -540
1020 -177 285 -225 358 -350 538 -64 93 -178 249 -245 336 -44 57 -89 116
-100 130 -152 205 -492 587 -770 866 -410 412 -767 718 -1230 1055 -556 405
-1256 803 -1875 1067 -58 25 -148 63 -200 85 -52 22 -129 53 -170 68 -41 16
-113 42 -160 60 -121 45 -317 112 -440 150 -58 18 -116 36 -130 41 -91 31
-489 135 -687 179 -160 36 -204 46 -308 66 -109 21 -341 59 -445 73 -47 7
-110 16 -140 21 -30 5 -82 12 -115 15 -33 3 -100 10 -150 15 -161 17 -336 31
-530 42 -242 13 -791 18 -830 8z m-308 -4821 c163 -32 312 -134 406 -277 78
-119 106 -215 107 -357 0 -132 -28 -232 -98 -345 -23 -38 -680 -701 -2110
-2132 l-2077 -2078 2080 -2082 c1595 -1597 2088 -2096 2114 -2141 18 -31 45
-88 59 -125 23 -60 26 -82 26 -207 1 -121 -2 -149 -22 -206 -68 -197 -215
-344 -411 -412 -167 -58 -337 -46 -501 35 l-85 41 -2542 2541 c-1399 1397
-2543 2545 -2543 2551 0 5 1142 1151 2538 2546 1993 1992 2550 2544 2597 2572
148 86 288 109 462 76z m2643 6 c345 -15 727 -88 1050 -200 808 -282 1424
-857 1723 -1610 266 -673 270 -1410 9 -2114 -102 -275 -284 -594 -476 -831
-80 -100 -331 -355 -406 -414 l-35 -27 55 -47 c97 -82 313 -304 391 -402 431
-541 661 -1191 662 -1870 0 -257 -22 -451 -79 -690 -226 -952 -936 -1698
-1913 -2014 -377 -122 -873 -196 -1239 -184 -115 4 -149 9 -215 31 -264 91
-447 343 -447 617 0 239 146 474 360 579 103 50 194 71 320 71 185 0 432 28
600 66 210 47 327 88 485 167 172 85 259 148 403 290 202 199 333 444 394 735
20 93 23 136 23 327 -1 246 -14 333 -81 535 -162 487 -540 875 -1024 1048
-115 41 -171 57 -332 91 -89 20 -162 42 -206 64 -172 84 -288 219 -344 397
-33 107 -33 275 0 375 47 142 131 258 247 341 86 61 161 89 328 125 470 99
829 316 1080 653 128 172 228 377 280 577 47 178 52 225 52 449 0 188 -3 228
-23 318 -33 147 -66 241 -130 371 -137 279 -363 501 -662 651 -283 142 -583
210 -1002 229 -119 6 -238 15 -265 22 -26 6 -89 31 -140 55 -291 139 -432 478
-326 785 99 286 361 459 673 443 41 -2 136 -6 210 -9z"/>
</g>
</svg>
